<?xml version="1.0" encoding="UTF-8" standalone="no"?>
<!-- Created with Inkscape (http://www.inkscape.org/) -->

<svg
   xmlns:dc="http://purl.org/dc/elements/1.1/"
   xmlns:cc="http://creativecommons.org/ns#"
   xmlns:rdf="http://www.w3.org/1999/02/22-rdf-syntax-ns#"
   xmlns:svg="http://www.w3.org/2000/svg"
   xmlns="http://www.w3.org/2000/svg"
   xmlns:sodipodi="http://sodipodi.sourceforge.net/DTD/sodipodi-0.dtd"
   xmlns:inkscape="http://www.inkscape.org/namespaces/inkscape"
   width="210mm"
   height="297mm"
   id="svg4181"
   version="1.1"
   inkscape:version="0.48.3.1 r9886"
   sodipodi:docname="Nouveau document 4">
  <defs
     id="defs4183">
    <inkscape:path-effect
       effect="bend_path"
       id="path-effect4746"
       is_visible="true"
       bendpath="m 173.74624,383.64119 c 182.58929,-6.37991 282.72645,-12.41682 445.47728,-3.03046"
       prop_scale="1"
       scale_y_rel="false"
       vertical="false"
       bendpath-nodetypes="cc" />
    <inkscape:path-effect
       effect="sketch"
       id="path-effect4744"
       is_visible="true"
       nbiter_approxstrokes="5"
       strokelength="100"
       strokelength_rdm="0.3;1"
       strokeoverlap="0.3"
       strokeoverlap_rdm="0.3;1"
       ends_tolerance="0.1;1"
       parallel_offset="5;1"
       tremble_size="5;1"
       tremble_frequency="1"
       nbtangents="5"
       tgt_places_rdmness="1;1"
       tgtscale="10"
       tgtlength="100"
       tgtlength_rdm="0.3;1" />
    <inkscape:path-effect
       bendpath-nodetypes="cc"
       vertical="false"
       scale_y_rel="false"
       prop_scale="1"
       bendpath="m 151.64333,381.29632 c 161.91124,-11.48144 325.15314,-10.98685 489.66939,0.97689"
       is_visible="true"
       id="path-effect4714"
       effect="bend_path" />
    <inkscape:path-effect
       effect="sketch"
       id="path-effect4712"
       is_visible="true"
       nbiter_approxstrokes="5"
       strokelength="100"
       strokelength_rdm="0.3;1"
       strokeoverlap="0.3"
       strokeoverlap_rdm="0.3;1"
       ends_tolerance="0.1;1"
       parallel_offset="5;1"
       tremble_size="5;1"
       tremble_frequency="1"
       nbtangents="5"
       tgt_places_rdmness="1;1"
       tgtscale="10"
       tgtlength="100"
       tgtlength_rdm="0.3;1" />
    <inkscape:path-effect
       effect="bend_path"
       id="path-effect4708"
       is_visible="true"
       bendpath="m 143.32994,380.49416 c 167.42372,-11.87234 336.22341,-11.36091 506.34084,1.01015"
       prop_scale="1"
       scale_y_rel="false"
       vertical="false"
       bendpath-nodetypes="cc" />
    <inkscape:path-effect
       effect="spiro"
       id="path-effect4704"
       is_visible="true" />
    <inkscape:path-effect
       effect="bend_path"
       id="path-effect4702"
       is_visible="true"
       bendpath="m 119.08628,404.73781 c 194.94548,-8.46525 376.74849,-12.88666 502.30023,0"
       prop_scale="1"
       scale_y_rel="false"
       vertical="false"
       bendpath-nodetypes="cc" />
  </defs>
  <sodipodi:namedview
     id="base"
     pagecolor="#ffffff"
     bordercolor="#666666"
     borderopacity="1.0"
     inkscape:pageopacity="0.0"
     inkscape:pageshadow="2"
     inkscape:zoom="0.7"
     inkscape:cx="303.38069"
     inkscape:cy="621.58447"
     inkscape:document-units="px"
     inkscape:current-layer="layer1"
     showgrid="false"
     inkscape:window-width="1440"
     inkscape:window-height="841"
     inkscape:window-x="0"
     inkscape:window-y="27"
     inkscape:window-maximized="1" />
  <metadata
     id="metadata4186">
    <rdf:RDF>
      <cc:Work
         rdf:about="">
        <dc:format>image/svg+xml</dc:format>
        <dc:type
           rdf:resource="http://purl.org/dc/dcmitype/StillImage" />
        <dc:title></dc:title>
      </cc:Work>
    </rdf:RDF>
  </metadata>
  <g
     inkscape:label="Calque 1"
     inkscape:groupmode="layer"
     id="layer1">
    <rect
       style="color:#000000;fill:#6c5353;fill-opacity:1;fill-rule:nonzero;stroke:none;stroke-width:3;marker:none;visibility:visible;display:inline;overflow:visible;enable-background:accumulate;opacity:0"
       id="rect4757"
       width="542.39423"
       height="521.31671"
       x="125.71429"
       y="116.83073" />
    <path
       style="color:#000000;fill:#e8ddab;fill-opacity:1;fill-rule:nonzero;stroke:none;stroke-width:3;marker:none;visibility:visible;display:inline;overflow:visible;enable-background:accumulate"
       d="m 125.56501,129.97313 c 181.04642,-12.79661 362.39773,-12.07887 542.32148,1.04252 L 631.45507,631.99297 C 474.41752,620.61029 317.05331,619.91413 161.09487,631.01519 z"
       id="rect4699"
       inkscape:path-effect="#path-effect4708"
       inkscape:original-d="m 154.44162,126.31359 502.30023,0 0,502.30023 -502.30023,0 z"
       inkscape:connector-curvature="0" />
    <path
       inkscape:connector-curvature="0"
       inkscape:original-d="m 162.38916,135.48473 485.76181,0 0,485.76182 -485.76181,0 z"
       inkscape:path-effect="#path-effect4714;#path-effect4712"
       id="path4710"
       d="m 144.01835,146.46012 c 27.94424,-2.7427 53.68568,-3.72603 79.50012,-4.7353 m -20.54203,-9.24413 c 23.42176,-1.6351 48.0283,-2.27661 73.05742,-2.53763 m -21.91892,6.24966 c 23.77406,-1.31884 49.31753,-2.52943 74.84943,-4.31957 m -11.08501,3.06099 c 33.15249,0.43641 64.09074,-0.19205 96.77641,0.98941 m -35.26862,-8.9676 c 27.41893,-0.72828 57.8549,-0.52826 89.4952,-0.9312 m -22.06901,6.05166 c 24.73094,1.12726 51.75034,-0.0903 79.65359,-2.37663 m -24.79574,3.36383 c 24.16405,0.80625 50.35045,1.58233 77.31813,2.33468 m -11.87215,-4.79618 c 23.86928,0.88448 46.32486,3.19785 68.0546,6.60759 m -15.7888,0.22504 c 13.54543,1.07035 26.72315,1.80492 39.70346,2.31778 -1.52662,16.86432 -3.38613,33.21837 -5.18167,49.32746 m 5.05487,-26.57307 c -2.80316,31.64316 -3.50344,61.84957 -3.63455,94.1298 m -3.07636,-23.7439 c -0.63914,27.71944 -3.46448,54.62291 -5.77391,81.48642 m -3.48297,-25.23406 c -0.7471,30.71898 -4.16357,59.2268 -6.80176,87.4193 m 0.62894,-16.48396 c -0.9654,28.05286 -2.8165,57.92639 -3.33146,90.18896 m 5.3507,-28.19226 c -2.71527,25.63713 -4.80902,50.98423 -7.79212,77.96972 m 3.5193,-22.26473 c -1.75642,25.55179 -4.57335,52.20873 -8.13407,78.64195 m 2.04236,-15.93273 c -2.52201,28.95808 -3.2829,57.31406 -3.29143,86.7649 -2.14786,-0.062 -4.2907,-0.11429 -6.4291,-0.15579 m 7.75186,-19.18722 c -0.32247,6.19345 -0.68679,12.26892 -1.08099,18.23877 -26.09186,-2.3298 -52.75364,-6.33285 -79.00116,-10.99441 m 26.77064,2.63957 c -32.53605,-1.09057 -64.70201,-1.48833 -96.15302,1.06643 m 26.49184,-5.6677 c -27.24462,-0.74702 -53.41407,-2.15571 -78.16955,-3.71025 m 8.41815,9.47799 c -29.04708,-1.18484 -58.29568,-1.3004 -85.23423,-1.97365 m 25.08994,0.35091 c -31.10298,-0.25965 -63.21525,-0.37792 -95.20113,-1.35373 m 30.19835,0.32627 c -33.6298,-0.78813 -64.51768,2.83288 -95.33336,6.19456 m 25.72075,-0.0111 c -23.53286,0.70823 -47.10531,0.76477 -70.62559,-0.44018 -0.55755,-8.9172 -1.11293,-18.00993 -1.66288,-27.30191 m -1.3379,31.21782 c -1.02425,0.0599 -2.04655,0.12093 -3.06695,0.18295 -2.74346,-32.35411 -3.62152,-64.18147 -4.29664,-96.4266 m 3.29806,20.31427 c -1.23922,-28.53644 -4.34052,-57.39888 -7.22394,-83.45475 m 5.55515,26.38286 c -2.13564,-23.7405 -4.05315,-47.01838 -6.43153,-69.90315 m 4.18648,17.98495 c -1.64089,-29.95721 -3.66813,-58.58425 -5.09384,-87.85608 m -1.22775,23.5836 c -2.69303,-24.43364 -4.41299,-49.79413 -6.72321,-75.2958 m 0.38862,18.41396 c -1.99277,-27.39301 -3.11351,-57.27985 -3.38019,-88.49918 m -4.30878,14.38688 c -3.06124,-34.0483 -4.05452,-64.87122 -5.13202,-95.62604 m 2.15718,37.3424 c -1.17882,-13.43563 -2.00975,-27.33278 -2.5914,-41.35697 13.61969,-0.8983 27.46151,-1.83433 41.44243,-2.53042 m -20.73219,-6.64925 c 27.87293,-1.63829 55.17775,-3.14054 82.53601,-4.02195 m -23.88316,3.93455 c 31.10716,-1.56215 59.78032,-1.5659 87.57453,-0.10288 m -24.42372,-7.08142 c 30.84051,-1.34281 62.71987,-1.28698 94.27637,-0.71264 m -21.71358,-5.38015 c 30.80833,-0.14876 59.16873,1.11309 88.07829,4.37529 m -33.46036,10.88973 c 30.47297,0.6816 62.45201,0.76837 95.03135,1.65426 M 469.6501,124.11236 c 22.82918,-0.56723 47.13239,0.76632 71.3692,2.31458 m -12.05405,10.36198 c 33.76799,0.93384 62.81635,2.15112 89.85968,2.78235 m -16.13984,3.4147 c 21.3697,1.52697 42.04159,2.86434 62.87036,4.41818 -0.69054,11.31166 -1.32823,22.63785 -1.77224,34.04554 m -7.58065,-43.87428 c -1.76862,24.57165 -2.69331,49.74814 -2.79058,75.94606 m 1.77338,-1.6475 c -3.33947,30.08782 -2.87234,58.35338 -1.40075,86.06389 m -3.71683,-28.91264 c -3.11662,30.11056 -3.20385,63.9065 -2.4694,98.04484 m 4.39851,-24.16131 c -2.13999,25.05385 -3.79147,50.19312 -5.48943,75.30836 m -0.58276,-21.51139 c -2.90738,26.39032 -4.49493,51.27995 -6.63765,76.34565 m -2.32743,-18.46191 c -2.79902,23.73012 -3.93553,47.98081 -5.06957,72.28627 m -1.10379,-10.38955 c -2.25794,30.42377 -3.24119,58.32083 -3.2386,85.92259 m -0.66017,-24.66161 c -1.1738,16.76746 -2.28459,33.64674 -3.29728,50.63917 -15.81156,-0.95193 -31.53732,-1.686 -47.14509,-2.2 m 23.24298,-1.81869 c -29.47524,-2.64559 -59.00737,-3.75186 -86.41017,-4.81657 m 25.10881,-0.0751 c -33.25667,-1.8291 -69.41986,-2.95415 -108.50071,-4.19381 m 38.29043,3.4275 c -29.85891,-1.60077 -63.64629,-2.85429 -97.58052,-5.89964 m 30.54028,-2.76243 c -31.73773,-1.26728 -62.75002,0.19404 -94.64426,1.43115 m 34.21071,3.83126 c -27.92288,1.13059 -56.1171,0.32387 -83.76699,-0.96854 m 12.71069,-2.94412 c -29.35494,-0.22486 -56.48906,3.81389 -83.89269,9.37061 m 13.44932,6.01728 c -12.99869,0.91556 -25.80544,1.84394 -38.39952,2.85579 -0.49832,-12.9703 -0.7929,-25.94217 -0.86356,-38.84521 m 4.71632,10.22043 c -2.20104,-32.75028 -5.44144,-65.48586 -9.44097,-98.97765 m 7.44723,34.20644 c -3.0173,-26.37848 -3.86938,-52.76432 -4.72444,-78.07996 m -2.54288,14.32974 c -2.61782,-28.42626 -2.85642,-54.12435 -2.07245,-79.58386 m 7.43605,14.7725 c -1.79931,-26.7289 -5.55106,-51.62255 -11.14327,-75.59044 m -7.72595,18.83425 c -1.0958,-29.42884 -2.19476,-60.19158 -0.82712,-91.53236 m 5.8454,21.13123 c -3.33237,-29.89986 -5.5626,-56.86405 -9.62546,-82.39629 m 0.3206,24.97231 c -1.27928,-27.41661 -3.74439,-55.6568 -6.039,-84.69957 4.13322,-0.54252 8.27059,-1.09625 12.4169,-1.66112 m -0.98334,2.39755 c 24.95915,-2.76764 51.18706,-3.54012 77.93987,-4.14128 m -21.03189,-6.56805 c 23.70926,-1.36381 48.4042,-2.2084 73.02176,-2.69856 m -13.23743,10.40238 c 29.17071,-0.45763 61.49267,-1.06888 93.60054,-0.2291 m -28.46301,-5.20195 c 23.99245,-0.31538 49.6444,0.22483 76.57471,1.79699 m -11.92385,3.5218 c 25.43851,-1.04537 50.72491,-0.19832 75.46973,0.74907 m -16.53878,-5.84158 c 24.72008,-0.66422 47.32973,0.63141 69.07906,2.33135 m -22.07991,5.27723 c 27.28516,1.82815 54.07971,1.66871 81.94769,1.50583 m -22.96307,-8.20718 c 26.17234,1.41874 51.50244,2.77783 76.89649,4.51815 m -12.94875,2.29828 c 13.54424,1.0062 27.16351,1.86244 40.61573,2.64087 -2.0333,18.12976 -4.34222,35.98902 -7.48112,53.74427 m 8.31093,-34.92619 c -3.31384,27.25804 -3.25843,55.21013 -2.55506,82.54764 m 2.10613,-10.86474 c -1.75923,23.61896 -3.18332,47.72919 -4.25823,71.19085 m -8.59473,-15.68067 c -2.58592,28.50624 -5.35874,54.738 -9.50844,81.30427 m 10.89007,-23.31696 c -1.24082,28.96707 -6.38787,61.48677 -13.04441,94.39181 m 4.02739,-27.05231 c -3.54357,30.24713 -4.32161,60.28836 -5.66484,88.09636 m -2.05953,-22.25045 c -0.95189,24.20801 -3.25837,47.62143 -5.73082,71.07805 m -3.60274,-10.01557 c -1.56029,24.07569 -2.17021,47.56436 -1.58539,71.143 m 2.52989,-21.28017 c -1.24809,10.97785 -2.02039,21.71789 -2.46148,32.32304 -13.15005,-1.02381 -25.76338,-2.18469 -38.1397,-3.26791 m 21.08205,3.05886 c -27.21364,-1.72434 -55.21184,-3.99151 -84.42856,-6.71876 m 10.56146,2.24525 c -33.02237,-3.05454 -64.15369,-0.73655 -93.1061,2.41674 m 30.3404,-2.37494 c -25.71535,-1.1102 -50.11839,-0.29933 -74.26672,1.62407 m 22.60217,-4.90371 c -22.26265,-1.06854 -46.88937,0.15171 -72.17068,2.30854 m 10.40666,3.37588 c -25.08552,1.10014 -48.99695,0.21637 -73.29228,-1.33889 m 18.40745,2.01667 c -26.96846,0.56131 -54.45438,1.81941 -82.56334,3.39254 m 15.95834,-6.46245 c -22.10737,0.67412 -43.95417,1.80614 -64.87239,2.82089 5.5e-4,-2.48047 0.0115,-4.96523 0.0335,-7.45498 m 6.32249,2.11783 c -3.27921,0.30766 -6.5297,0.61506 -9.75367,0.92474 -1.6194,-20.05466 -2.16648,-40.22723 -2.22665,-59.84491 m 1.78366,16.7825 c -1.89382,-25.54186 -2.53404,-49.982 -2.13351,-74.55442 m 0.46028,24.507 c -2.91041,-24.15607 -3.59039,-48.65634 -3.931,-73.15906 m -0.38582,10.54572 c -1.89742,-28.79701 -5.71048,-58.83336 -10.92821,-87.95663 m 11.30256,27.84395 c -1.74976,-23.85855 -3.00575,-47.895 -3.90413,-72.6572 m -11.794,18.02796 c -2.07045,-29.31458 -2.74183,-58.55312 -2.01007,-88.35757 m -2.08092,14.17979 c -2.91348,-24.51674 -3.98587,-49.5479 -5.16505,-73.0413 m 2.96326,23.27197 c -2.85003,-25.3555 -3.23931,-52.64598 -3.00977,-79.97518 4.02389,-0.39947 8.06025,-0.79377 12.10387,-1.17757 m 0.33235,-6.93129 c 24.85883,-2.84677 48.54323,-3.34187 71.72716,-3.33461 m -19.37968,6.81467 c 32.75786,-0.75434 64.42594,-3.98675 96.96623,-6.93892 m -26.6239,-1.68631 c 26.90623,-1.10127 53.89034,0.22922 81.68027,3.63091 m -26.80941,2.18743 c 31.72212,0.3935 65.94052,-1.00064 99.23556,-1.28598 m -37.38566,-0.87121 c 23.82566,-0.36022 48.8887,-0.26413 74.00321,-0.33274 m -9.76293,7.94569 c 34.21154,1.95771 66.57316,-0.005 100.36603,-1.72455 m -26.29833,-8.7303 c 28.31144,-0.17529 55.83202,2.66625 84.40481,6.1643 m -19.92411,-3.38131 c 27.41302,1.9112 52.95246,3.37173 79.00023,5.421 -0.21499,2.92453 -0.42328,5.85303 -0.62158,8.78694 m -17.6124,-4.57037 c 4.65799,0.21024 9.28656,0.41469 13.88429,0.6065 -2.23766,23.9944 -5.3124,47.39029 -9.43008,69.16979 m 6.74974,-18.31534 c -1.8596,24.22304 -3.9892,45.67895 -6.64234,65.71817 m 1.14202,-11.31649 c -2.95492,32.08763 -5.34534,63.45701 -8.9562,96.42342 m 6.40767,-24.5023 c -2.85903,25.65301 -4.00431,53.25014 -5.22939,80.18653 m -0.98019,-24.82211 c -1.94318,31.32321 -3.8492,63.78762 -4.66748,95.28227 m -4.91395,-24.52286 c -0.95657,33.05487 -2.33226,64.57925 -0.15422,96.77986 m -2.33636,-35.22927 c -1.62773,23.34307 -3.8436,47.08776 -6.52158,71.14808 m 8.82363,-9.77495 c -2.19907,19.42554 -4.13119,38.5484 -6.59656,57.5999 -12.62658,-0.95022 -25.46221,-1.86404 -38.69935,-2.68496 m 32.70465,4.65227 c -31.21608,-3.25539 -62.02483,-3.95095 -95.03214,-4.96155 m 24.0864,-0.33675 c -24.07272,-1.55433 -49.18591,-2.20556 -75.10596,-2.48118 m 16.16435,-2.97609 c -26.739,-0.89879 -51.57052,-0.73224 -75.52365,0.387 m 13.27196,-4.70383 c -28.4433,-0.95411 -56.61584,0.38601 -84.7793,2.77128 m 22.48975,-0.86785 c -28.16655,0.37523 -54.44462,0.91357 -79.63544,2.01645 m 14.80698,-0.81955 c -26.90929,-0.55519 -51.83929,1.99646 -76.90195,5.45995 m 21.28074,0.0141 c -26.71255,1.61028 -52.22129,3.55704 -77.96693,6.65389 -0.34759,-4.89153 -0.70611,-9.75075 -1.08696,-14.57126 m 4.05052,10.37316 c -3.65243,0.32654 -7.2729,0.61967 -10.86571,0.88242 -2.59334,-28.46044 -3.41782,-59.32538 -4.76591,-90.98569 m 6.89978,30.98956 c -0.83347,-32.84469 -6.45287,-66.84544 -12.52968,-102.48423 m 11.33924,35.55802 c -1.58522,-25.04216 -3.58271,-50.4557 -5.57931,-74.904 m -1.1676,11.89973 c -3.47089,-31.05398 -5.5567,-63.13424 -9.59954,-94.91996 m 0.58107,33.01377 c -2.91216,-29.13943 -2.47993,-63.49795 -0.56897,-99.32181 m 5.93508,31.4212 c -1.51397,-29.03533 -6.00774,-59.07266 -11.96154,-87.91801 m 6.6875,23.84904 c -2.94683,-27.61518 -5.43883,-57.84321 -9.53125,-88.71139 m 1.51213,29.53869 c -1.17704,-11.40919 -2.16467,-23.41004 -3.08971,-35.89985 13.65531,-1.9117 27.3992,-4.42019 41.02402,-7.35751 m -33.98882,-2.60511 c 25.59409,-1.60217 53.46121,-1.72617 81.65307,0.0757 m -22.46948,1.20581 c 30.52691,-1.78476 61.46779,-3.80549 93.61382,-6.59068 m -24.3692,-4.71044 c 24.22464,-0.62809 50.35786,-0.48486 76.19284,0.83138 m -21.36105,8.17524 c 26.15142,-1.63251 53.78801,-1.69546 82.47779,-2.40204 m -25.37237,2.83298 c 24.09353,-0.48157 48.87299,-0.2535 73.40599,-0.0866 m -13.89141,0.25942 c 26.22403,-0.18423 53.63369,-0.96545 81.92636,-3.41237 m -29.01382,-7.92965 c 24.14798,0.56498 48.20347,2.63123 72.8176,5.92526 m -5.7907,3.35232 c 26.97483,2.17922 53.7084,4.66157 81.52947,9.23182 m -26.92174,-7.96119 c 13.28976,0.78341 26.71095,1.7876 40.2912,2.99368 -0.50377,11.43126 -0.88694,22.95837 -1.13201,34.57015 m -7.37309,-18.04065 c -1.02849,29.84612 -3.95935,61.34653 -5.86648,93.37567 m 6.53374,-16.95939 c -1.27278,31.13614 -5.13016,60.19268 -9.29297,89.56262 m 8.48769,-38.54107 c -0.67269,24.14403 -2.89664,50.64736 -4.844,78.68352 m 8.08588,-6.28481 c -1.41675,26.96611 -4.89924,53.53423 -9.36073,79.51843 m -10.37352,-24.77701 c -1.13471,26.86405 -1.92435,56.38741 -0.45405,86.27174 m 7.76953,-22.36297 c -1.5191,29.27845 -3.39863,58.36084 -4.23593,87.36605 m 1.845,-27.87991 c -2.53111,25.8216 -5.73154,52.62127 -10.78471,80.28958 M 623.96671,597.951 c -0.5417,9.92729 -1.14617,19.79385 -1.76882,29.62527 -15.24911,-1.11525 -30.54604,-2.21041 -45.7181,-3.18608 m 26.46257,0.57284 c -33.47187,-2.38539 -66.00949,-4.50387 -101.51195,-7.27845 m 19.82242,4.91142 c -24.6168,-0.0486 -47.44025,-1.75949 -69.60196,-3.62334 m 19.64264,-5.26657 c -30.1548,0.59963 -58.25607,0.57978 -85.72851,3.16018 m 17.97712,-2.69811 c -33.12213,0.79155 -67.95644,0.41688 -103.76964,1.80829 -0.004,1.4e-4 -0.007,2.8e-4 -0.0107,4.2e-4 m 26.20473,-0.21367 c -27.67091,-0.58035 -53.88347,0.28637 -78.36631,0.43602 m 18.41567,1.30957 c -28.46725,1.1543 -56.16008,0.30395 -82.64387,-2.31823 m 16.82535,0.56269 c -12.78861,0.84498 -25.57725,1.9944 -38.09108,3.48406 -0.12771,-13.45541 0.0368,-26.63318 0.81146,-39.49207 m 10.41501,25.26669 c -0.66619,-27.81633 -5.01442,-55.80728 -10.48608,-84.91402 m 0.67198,16.32905 c -1.20552,-32.92163 -5.44579,-63.76602 -9.45214,-93.19869 m -0.96052,32.5129 c -2.51986,-32.53125 -5.24428,-61.52572 -9.02053,-90.4787 m 2.96075,14.01725 c -1.22266,-29.53511 -2.62603,-59.41175 -2.21257,-89.86087 m 7.88768,32.55176 c -0.85431,-34.51339 -6.43361,-66.71813 -12.39571,-101.12194 m 10.20119,28.93195 c -2.75691,-24.37573 -4.24521,-48.88736 -6.11871,-72.69006 m -5.13333,16.80977 c -2.13209,-24.42632 -2.84386,-49.76003 -2.78686,-76.52404 5.90449,-1.00038 11.84933,-2.06239 17.82668,-3.19226 M 441.82933,615.32168 280.9754,616.64512 M 147.62806,324.67303 137.47658,181.51688 m 23.29284,328.47549 -10.54936,-148.76706 m 209.16939,-232.2235 190.12534,3.42828 m 81.74993,388.0155 -12.29596,169.08476"
       style="color:#000000;fill:#c4b676;fill-opacity:1;fill-rule:nonzero;stroke:none;stroke-width:3;marker:none;visibility:visible;display:inline;overflow:visible;enable-background:accumulate" />
    <g
       id="g4735"
       inkscape:path-effect="#path-effect4746">
      <path
         id="rect4716"
         d="m 169.65195,179.60791 c 74.37903,-2.6333 151.31572,-6.06153 230.88177,-7.41694 76.80843,-1.27066 153.68498,0.28893 230.43854,4.70746 l -23.73013,411.45851 c -66.50587,-3.84387 -133.18962,-5.19452 -199.86011,-4.08064 -71.81271,1.15964 -146.19785,4.52215 -223.22712,7.21979 z"
         style="color:#000000;fill:none;stroke:#c4b676;stroke-width:3;stroke-opacity:1;marker:none;visibility:visible;display:inline;overflow:visible;enable-background:accumulate"
         inkscape:original-d="m 176.7767,179.59038 434.3656,0 0,412.14224 -434.3656,0 z" />
      <path
         inkscape:connector-curvature="0"
         id="path4718"
         d="m 283.77106,174.3875 14.555,411.88978"
         style="color:#000000;fill:none;stroke:#c4b676;stroke-width:3;stroke-linecap:butt;stroke-linejoin:round;stroke-miterlimit:4;stroke-opacity:1;stroke-dasharray:none;stroke-dashoffset:0;marker:none;visibility:visible;display:inline;overflow:visible;enable-background:accumulate"
         inkscape:original-d="m 288.90363,178.58023 0,412.14224" />
      <path
         inkscape:connector-curvature="0"
         id="path4720"
         d="m 400.75342,168.14618 6.87726,416.12598"
         style="color:#000000;fill:none;stroke:#c4b676;stroke-width:3;stroke-linecap:butt;stroke-linejoin:round;stroke-miterlimit:4;stroke-opacity:1;stroke-dasharray:none;stroke-dashoffset:0;marker:none;visibility:visible;display:inline;overflow:visible;enable-background:accumulate"
         inkscape:original-d="m 400.02041,175.54977 0,416.18285" />
      <path
         inkscape:connector-curvature="0"
         id="path4722"
         d="m 509.84023,173.30622 c -0.62459,1.99998 -2.47143,103.24845 -4.18177,203.9965 -1.71034,100.74804 -3.30276,200.99539 -3.30276,200.99539"
         style="color:#000000;fill:none;stroke:#c4b676;stroke-width:3;stroke-linecap:butt;stroke-linejoin:round;stroke-miterlimit:4;stroke-opacity:1;stroke-dasharray:none;stroke-dashoffset:0;marker:none;visibility:visible;display:inline;overflow:visible;enable-background:accumulate"
         inkscape:original-d="m 500.02551,180.60054 c -1.07782,4.02247 0,405.07117 0,405.07117" />
      <path
         inkscape:connector-curvature="0"
         id="path4724"
         d="m 610.54653,479.27119 c -68.23074,-3.8655 -136.61751,-5.21511 -204.97729,-4.07629 -73.53045,1.20597 -148.24557,4.56078 -224.21609,7.2355"
         style="color:#000000;fill:none;stroke:#c4b676;stroke-width:3;stroke-linecap:butt;stroke-linejoin:round;stroke-miterlimit:4;stroke-opacity:1;stroke-dasharray:none;stroke-dashoffset:0;marker:none;visibility:visible;display:inline;overflow:visible;enable-background:accumulate"
         inkscape:original-d="m 608.11183,482.63615 -430.32498,0" />
      <path
         sodipodi:nodetypes="cc"
         inkscape:connector-curvature="0"
         id="path4726"
         d="m 619.10719,382.62768 c -71.62972,-4.13119 -143.40987,-5.58631 -215.14932,-4.39405 -76.03227,1.26323 -152.03582,4.68371 -228.08333,7.35455"
         style="color:#000000;fill:none;stroke:#c4b676;stroke-width:3;stroke-linecap:butt;stroke-linejoin:round;stroke-miterlimit:4;stroke-opacity:1;stroke-dasharray:none;stroke-dashoffset:0;marker:none;visibility:visible;display:inline;overflow:visible;enable-background:accumulate"
         inkscape:original-d="m 611.14229,385.6615 -435.37575,0" />
      <path
         inkscape:connector-curvature="0"
         id="path4728"
         d="m 624.4581,289.84783 c -73.94047,-4.26078 -148.019,-5.76302 -222.04445,-4.53539 -78.49012,1.31936 -155.74593,4.80494 -231.84212,7.47047"
         style="color:#000000;fill:none;stroke:#c4b676;stroke-width:3;stroke-linecap:butt;stroke-linejoin:round;stroke-miterlimit:4;stroke-opacity:1;stroke-dasharray:none;stroke-dashoffset:0;marker:none;visibility:visible;display:inline;overflow:visible;enable-background:accumulate"
         inkscape:original-d="m 611.14229,292.72747 -437.39605,0" />
    </g>
    <path
       style="color:#000000;fill:#c4b676;fill-opacity:1;stroke:none;stroke-width:3;marker:none;visibility:visible;display:inline;overflow:visible;enable-background:accumulate"
       d="m 597.55766,201.82122 c -11.71272,0 -21.2133,9.43022 -21.2133,21.05618 0,3.99979 1.14679,7.70535 3.09816,10.88988 L 244.58584,538.72022 c -3.11786,-2.26529 -6.95705,-3.61791 -11.11693,-3.61791 -10.41131,0 -18.84412,8.40654 -18.84412,18.74073 0,10.3342 8.43281,18.70455 18.84412,18.70455 10.4113,0 18.84411,-8.37035 18.84411,-18.70455 0,-2.35489 -0.43929,-4.61741 -1.23926,-6.69311 L 587.0239,241.11163 c 3.10152,1.76324 6.70339,2.78578 10.53376,2.78578 11.71271,0 21.17685,-9.39404 21.17685,-21.02001 0,-11.62596 -9.46414,-21.05618 -21.17685,-21.05618 z"
       id="rect4748"
       inkscape:connector-curvature="0" />
  </g>
</svg>
